<svg width="20" height="20" viewBox="0 0 20 20" fill="none" xmlns="http://www.w3.org/2000/svg">
<path opacity="0.4" d="M14.19 0H5.81C2.17 0 0 2.17 0 5.81V14.18C0 17.83 2.17 20 5.81 20H14.18C17.82 20 19.99 17.83 19.99 14.19V5.81C20 2.17 17.83 0 14.19 0Z" fill="#9F9F9F"/>
<path d="M14.4198 5.81039V14.1904C14.4198 14.8304 13.8998 15.3504 13.2598 15.3504C12.6098 15.3504 12.0898 14.8304 12.0898 14.1904V5.81039C12.0898 5.17039 12.6098 4.65039 13.2598 4.65039C13.8998 4.65039 14.4198 5.17039 14.4198 5.81039Z" fill="#9F9F9F"/>
<path d="M7.91008 10.9295V14.1895C7.91008 14.8295 7.39008 15.3495 6.74008 15.3495C6.10008 15.3495 5.58008 14.8295 5.58008 14.1895V10.9295C5.58008 10.2895 6.10008 9.76953 6.74008 9.76953C7.39008 9.76953 7.91008 10.2895 7.91008 10.9295Z" fill="#9F9F9F"/>
</svg>
