<svg width="154" height="36" viewBox="0 0 154 36" fill="none" xmlns="http://www.w3.org/2000/svg">
<path d="M13.9101 15.4692H10.9683V27.6796H13.9101V15.4692Z" fill="url(#paint0_linear_1695_1089)" fill-opacity="0.5"/>
<path opacity="0.81" d="M19.8335 20.2266H16.7866V30.3091H19.8335V20.2266Z" fill="#50B2FF"/>
<path d="M12.9252 15.4692H9.9834V27.6796H12.9252V15.4692Z" fill="url(#paint1_linear_1695_1089)"/>
<path d="M18.8652 20.2158H15.8184V30.2984H18.8652V20.2158Z" fill="url(#paint2_linear_1695_1089)"/>
<path d="M18.5374 17.0488H17.6621V19.7882H18.5374V17.0488Z" fill="url(#paint3_linear_1695_1089)" fill-opacity="0.5"/>
<path d="M18.0994 17.0488H17.3335V19.7882H18.0994V17.0488Z" fill="url(#paint4_linear_1695_1089)"/>
<path d="M12.7386 12.9946H11.7539V15.0766H12.7386V12.9946Z" fill="url(#paint5_linear_1695_1089)" fill-opacity="0.5"/>
<path d="M12.4216 12.9712H11.5811V15.0756H12.4216V12.9712Z" fill="url(#paint6_linear_1695_1089)"/>
<g filter="url(#filter0_i_1695_1089)">
<path d="M30.478 9.30787C30.9 9.02802 31.0178 8.45664 30.7151 8.05024C28.9778 5.71789 26.6454 3.88841 23.9558 2.75885C20.9838 1.51071 17.7089 1.17324 14.5453 1.7891C11.3817 2.40496 8.47156 3.9465 6.18281 6.21877C3.89405 8.49106 2.32948 11.392 1.68698 14.5548C1.04447 17.7176 1.35287 21.0002 2.57318 23.9874C3.79349 26.9747 5.87089 29.5325 8.54269 31.3373C11.2145 33.1422 14.3607 34.113 17.5835 34.1271C20.5 34.1398 23.3608 33.3684 25.8699 31.9014C26.3071 31.6457 26.4216 31.0736 26.1422 30.6508L23.6622 26.8984C23.3827 26.4756 22.8157 26.3638 22.3696 26.6037C20.9112 27.3879 19.2759 27.7984 17.611 27.791C15.6395 27.7825 13.7149 27.1886 12.0805 26.0845C10.446 24.9804 9.1752 23.4157 8.4287 21.5883C7.68219 19.7609 7.49354 17.7528 7.88658 15.818C8.27963 13.8832 9.23673 12.1086 10.6368 10.7185C12.037 9.32851 13.8173 8.3855 15.7524 8.00875C17.6877 7.63201 19.6911 7.83845 21.5093 8.60197C23.0446 9.2468 24.3897 10.2645 25.4262 11.5571C25.7433 11.9524 26.3089 12.0714 26.731 11.7916L30.478 9.30787Z" fill="url(#paint7_linear_1695_1089)"/>
</g>
<g filter="url(#filter1_i_1695_1089)">
<path d="M30.4917 15.7126L37.9141 5.58823C38.8356 4.33127 38.7979 2.61079 37.822 1.39565C36.4145 -0.356854 33.7343 -0.308101 32.3914 1.49443L21.7635 15.7599C20.4465 17.5275 20.4956 19.965 21.8828 21.678L31.9647 34.1286C33.3939 35.8936 36.094 35.8589 37.4775 34.0577C38.4834 32.7484 38.444 30.9146 37.383 29.6497L30.6859 21.6653C29.2584 19.9634 29.1781 17.5044 30.4917 15.7126Z" fill="url(#paint8_linear_1695_1089)"/>
</g>
<path d="M45.0708 28.8778V10.7954H49.4348V18.4416H49.6728L55.6413 10.7954H60.7811L54.3806 18.8654L60.8958 28.8778H55.6766L51.1804 21.7703L49.4348 23.9776V28.8778H45.0708ZM67.8297 29.1338C66.4074 29.1338 65.1848 28.8425 64.1621 28.2597C63.1453 27.6712 62.3607 26.853 61.8082 25.8053C61.2616 24.7516 60.9883 23.5303 60.9883 22.141C60.9883 20.7461 61.2616 19.5247 61.8082 18.4769C62.3607 17.4232 63.1453 16.6051 64.1621 16.0223C65.1848 15.4338 66.4074 15.1394 67.8297 15.1394C69.252 15.1394 70.4715 15.4338 71.4883 16.0223C72.511 16.6051 73.2956 17.4232 73.8423 18.4769C74.3947 19.5247 74.671 20.7461 74.671 22.141C74.671 23.5303 74.3947 24.7516 73.8423 25.8053C73.2956 26.853 72.511 27.6712 71.4883 28.2597C70.4715 28.8425 69.252 29.1338 67.8297 29.1338ZM67.8561 25.8758C68.3733 25.8758 68.8111 25.717 69.1697 25.399C69.5282 25.0813 69.8016 24.6398 69.9896 24.0747C70.1835 23.5096 70.2805 22.8563 70.2805 22.1146C70.2805 21.3612 70.1835 20.7019 69.9896 20.1368C69.8016 19.5717 69.5282 19.1303 69.1697 18.8125C68.8111 18.4946 68.3733 18.3357 67.8561 18.3357C67.3213 18.3357 66.8687 18.4946 66.4984 18.8125C66.134 19.1303 65.8549 19.5717 65.6609 20.1368C65.4728 20.7019 65.3788 21.3612 65.3788 22.1146C65.3788 22.8563 65.4728 23.5096 65.6609 24.0747C65.8549 24.6398 66.134 25.0813 66.4984 25.399C66.8687 25.717 67.3213 25.8758 67.8561 25.8758ZM76.8794 28.8778V15.3161H81.1905V28.8778H76.8794ZM79.0394 13.7356C78.434 13.7356 77.9138 13.5355 77.4789 13.1352C77.044 12.729 76.8265 12.2405 76.8265 11.6695C76.8265 11.1045 77.044 10.6218 77.4789 10.2215C77.9138 9.81537 78.434 9.6123 79.0394 9.6123C79.6506 9.6123 80.1708 9.81537 80.5998 10.2215C81.0348 10.6218 81.2521 11.1045 81.2521 11.6695C81.2521 12.2405 81.0348 12.729 80.5998 13.1352C80.1708 13.5355 79.6506 13.7356 79.0394 13.7356ZM88.2456 21.1434V28.8778H83.9345V15.3161H88.034V17.8059H88.1838C88.4837 16.9759 88.9949 16.3255 89.7179 15.8546C90.4408 15.3778 91.3018 15.1394 92.301 15.1394C93.2532 15.1394 94.0789 15.3543 94.7783 15.7839C95.4836 16.2078 96.0302 16.8023 96.4181 17.5675C96.812 18.3269 97.0059 19.2156 97 20.2339V28.8778H92.6889V21.0815C92.6948 20.3281 92.5037 19.7395 92.1158 19.3157C91.7338 18.8918 91.2019 18.68 90.5201 18.68C90.0675 18.68 89.668 18.7801 89.3212 18.9802C88.9802 19.1744 88.7158 19.454 88.5276 19.8189C88.3455 20.184 88.2514 20.6254 88.2456 21.1434ZM99.669 33.9636V15.3161H103.936V17.6382H104.068C104.245 17.2261 104.494 16.8288 104.818 16.4462C105.147 16.0635 105.564 15.7516 106.07 15.5103C106.581 15.2631 107.192 15.1394 107.903 15.1394C108.844 15.1394 109.722 15.3866 110.539 15.8811C111.362 16.3756 112.026 17.1378 112.532 18.1678C113.037 19.198 113.29 20.5106 113.29 22.1058C113.29 23.642 113.046 24.9282 112.558 25.9642C112.076 27.0001 111.424 27.7771 110.601 28.2951C109.784 28.8131 108.876 29.0721 107.877 29.0721C107.195 29.0721 106.604 28.9602 106.105 28.7366C105.605 28.5129 105.185 28.2186 104.844 27.8536C104.509 27.4887 104.251 27.0973 104.068 26.6794H103.98V33.9636H99.669ZM103.892 22.0969C103.892 22.8269 103.989 23.4626 104.183 24.0041C104.383 24.5455 104.668 24.9664 105.038 25.2667C105.414 25.5609 105.864 25.7082 106.387 25.7082C106.916 25.7082 107.366 25.5609 107.736 25.2667C108.106 24.9664 108.385 24.5455 108.573 24.0041C108.767 23.4626 108.864 22.8269 108.864 22.0969C108.864 21.367 108.767 20.7343 108.573 20.1986C108.385 19.663 108.106 19.248 107.736 18.9537C107.371 18.6594 106.922 18.5123 106.387 18.5123C105.858 18.5123 105.408 18.6564 105.038 18.9448C104.668 19.2333 104.383 19.6454 104.183 20.181C103.989 20.7166 103.892 21.3553 103.892 22.0969ZM119.366 29.1074C118.503 29.1074 117.736 28.9632 117.065 28.6748C116.401 28.3804 115.875 27.939 115.487 27.3504C115.105 26.7559 114.914 26.0113 114.914 25.1166C114.914 24.3631 115.047 23.7274 115.311 23.2094C115.576 22.6914 115.94 22.2705 116.404 21.9468C116.869 21.6231 117.403 21.3788 118.009 21.214C118.614 21.0433 119.261 20.9286 119.948 20.8696C120.718 20.7991 121.338 20.7254 121.809 20.649C122.279 20.5665 122.62 20.4518 122.831 20.3045C123.049 20.1516 123.157 19.9368 123.157 19.66V19.6159C123.157 19.1626 123.002 18.8125 122.69 18.5653C122.379 18.3181 121.958 18.1944 121.429 18.1944C120.859 18.1944 120.401 18.3181 120.054 18.5653C119.707 18.8125 119.487 19.1538 119.393 19.5894L115.417 19.4482C115.534 18.6241 115.837 17.8883 116.325 17.2408C116.819 16.5875 117.495 16.0753 118.353 15.7046C119.217 15.3278 120.254 15.1394 121.465 15.1394C122.329 15.1394 123.125 15.2425 123.854 15.4484C124.583 15.6486 125.217 15.943 125.758 16.3314C126.299 16.714 126.716 17.185 127.01 17.7441C127.31 18.3033 127.46 18.942 127.46 19.66V28.8778H123.404V26.9884H123.298C123.058 27.4475 122.749 27.836 122.373 28.1538C122.003 28.4717 121.565 28.7101 121.059 28.869C120.56 29.0279 119.995 29.1074 119.366 29.1074ZM120.698 26.2821C121.162 26.2821 121.579 26.1878 121.95 25.9995C122.326 25.8111 122.626 25.5521 122.849 25.2225C123.072 24.887 123.184 24.4985 123.184 24.0571V22.7679C123.06 22.8327 122.911 22.8916 122.734 22.9446C122.564 22.9975 122.376 23.0475 122.17 23.0947C121.964 23.1418 121.753 23.183 121.535 23.2182C121.318 23.2535 121.109 23.2859 120.909 23.3153C120.504 23.3801 120.157 23.4802 119.869 23.6156C119.587 23.7509 119.369 23.9276 119.217 24.1454C119.07 24.3572 118.996 24.6103 118.996 24.9046C118.996 25.352 119.155 25.6934 119.472 25.9288C119.796 26.1642 120.204 26.2821 120.698 26.2821ZM130.096 28.8778V15.3161H134.284V17.7883H134.425C134.672 16.8936 135.074 16.2284 135.632 15.7929C136.191 15.3513 136.84 15.1306 137.581 15.1306C137.78 15.1306 137.986 15.1454 138.198 15.1748C138.41 15.1984 138.606 15.2366 138.789 15.2895V19.0419C138.583 18.9714 138.313 18.9154 137.978 18.8742C137.648 18.8331 137.355 18.8125 137.096 18.8125C136.584 18.8125 136.122 18.9272 135.711 19.1568C135.307 19.3804 134.986 19.6954 134.751 20.1015C134.522 20.5017 134.407 20.9727 134.407 21.5142V28.8778H130.096ZM144.433 25.3197L144.451 20.1722H145.05L148.859 15.3161H153.743L148.083 22.2735H146.945L144.433 25.3197ZM140.545 28.8778V10.7954H144.856V28.8778H140.545ZM148.956 28.8778L145.412 23.2447L148.25 20.181L153.937 28.8778H148.956Z" fill="white"/>
<defs>
<filter id="filter0_i_1695_1089" x="1.35986" y="1.48926" width="29.5244" height="36.1829" filterUnits="userSpaceOnUse" color-interpolation-filters="sRGB">
<feFlood flood-opacity="0" result="BackgroundImageFix"/>
<feBlend mode="normal" in="SourceGraphic" in2="BackgroundImageFix" result="shape"/>
<feColorMatrix in="SourceAlpha" type="matrix" values="0 0 0 0 0 0 0 0 0 0 0 0 0 0 0 0 0 0 127 0" result="hardAlpha"/>
<feOffset dy="3.54472"/>
<feGaussianBlur stdDeviation="1.77236"/>
<feComposite in2="hardAlpha" operator="arithmetic" k2="-1" k3="1"/>
<feColorMatrix type="matrix" values="0 0 0 0 1 0 0 0 0 1 0 0 0 0 1 0 0 0 0.4 0"/>
<feBlend mode="normal" in2="shape" result="effect1_innerShadow_1695_1089"/>
</filter>
<filter id="filter1_i_1695_1089" x="20.8081" y="0.111328" width="17.7725" height="38.8641" filterUnits="userSpaceOnUse" color-interpolation-filters="sRGB">
<feFlood flood-opacity="0" result="BackgroundImageFix"/>
<feBlend mode="normal" in="SourceGraphic" in2="BackgroundImageFix" result="shape"/>
<feColorMatrix in="SourceAlpha" type="matrix" values="0 0 0 0 0 0 0 0 0 0 0 0 0 0 0 0 0 0 127 0" result="hardAlpha"/>
<feOffset dy="3.54472"/>
<feGaussianBlur stdDeviation="1.77236"/>
<feComposite in2="hardAlpha" operator="arithmetic" k2="-1" k3="1"/>
<feColorMatrix type="matrix" values="0 0 0 0 1 0 0 0 0 1 0 0 0 0 1 0 0 0 0.4 0"/>
<feBlend mode="normal" in2="shape" result="effect1_innerShadow_1695_1089"/>
</filter>
<linearGradient id="paint0_linear_1695_1089" x1="12.4392" y1="15.4692" x2="12.4392" y2="27.6797" gradientUnits="userSpaceOnUse">
<stop stop-color="#20BCFF"/>
<stop offset="1" stop-color="#0051FF"/>
</linearGradient>
<linearGradient id="paint1_linear_1695_1089" x1="11.4543" y1="15.4692" x2="11.4543" y2="27.6797" gradientUnits="userSpaceOnUse">
<stop stop-color="#20BCFF"/>
<stop offset="1" stop-color="#0051FF"/>
</linearGradient>
<linearGradient id="paint2_linear_1695_1089" x1="17.3418" y1="20.2158" x2="17.3418" y2="30.2984" gradientUnits="userSpaceOnUse">
<stop stop-color="#20BCFF"/>
<stop offset="1" stop-color="#0051FF"/>
</linearGradient>
<linearGradient id="paint3_linear_1695_1089" x1="18.0998" y1="17.0488" x2="18.0998" y2="19.7882" gradientUnits="userSpaceOnUse">
<stop stop-color="#20BCFF"/>
<stop offset="1" stop-color="#0051FF"/>
</linearGradient>
<linearGradient id="paint4_linear_1695_1089" x1="17.7165" y1="17.0488" x2="17.7165" y2="19.7882" gradientUnits="userSpaceOnUse">
<stop stop-color="#0051FF"/>
<stop offset="1" stop-color="#20BCFF"/>
</linearGradient>
<linearGradient id="paint5_linear_1695_1089" x1="12.2463" y1="12.9946" x2="12.2463" y2="15.0767" gradientUnits="userSpaceOnUse">
<stop stop-color="#20BCFF"/>
<stop offset="1" stop-color="#0051FF"/>
</linearGradient>
<linearGradient id="paint6_linear_1695_1089" x1="12.0013" y1="12.9712" x2="12.0013" y2="15.0756" gradientUnits="userSpaceOnUse">
<stop stop-color="#0051FF"/>
<stop offset="1" stop-color="#20BCFF"/>
</linearGradient>
<linearGradient id="paint7_linear_1695_1089" x1="8.66085" y1="4.20011" x2="26.6855" y2="31.3916" gradientUnits="userSpaceOnUse">
<stop stop-color="#20BCFF"/>
<stop offset="1" stop-color="#0051FF"/>
</linearGradient>
<linearGradient id="paint8_linear_1695_1089" x1="29.5006" y1="-2.06478" x2="29.5006" y2="37.5879" gradientUnits="userSpaceOnUse">
<stop stop-color="#20BCFF"/>
<stop offset="1" stop-color="#0051FF"/>
</linearGradient>
</defs>
</svg>
