<svg width="48" height="48" viewBox="0 0 48 48" fill="none" xmlns="http://www.w3.org/2000/svg">
<path d="M4.9718 42C3.72218 42 2.66447 41.58 1.79868 40.74C0.932895 39.9 0.5 38.8738 0.5 37.6614V10.3386C0.5 9.1262 0.932895 8.1 1.79868 7.26C2.66447 6.42 3.72218 6 4.9718 6H43.0282C44.2778 6 45.3355 6.42 46.2013 7.26C47.0671 8.1 47.5 9.1262 47.5 10.3386V37.6614C47.5 38.8738 47.0671 39.9 46.2013 40.74C45.3355 41.58 44.2778 42 43.0282 42H4.9718ZM24 25.3386L43.7895 13.0614L43.4091 9.6L24 21.6L4.59086 9.6L4.21053 13.0614L24 25.3386Z" fill="#E3E3E3"/>
</svg>
