<svg width="48" height="48" viewBox="0 0 48 48" fill="none" xmlns="http://www.w3.org/2000/svg">
<rect width="48" height="48" rx="4" fill="#0866FF"/>
<path d="M23.9999 10.0557C16.1448 10.0557 10.0557 15.8095 10.0557 23.5812C10.0557 27.6467 11.7217 31.1588 14.4347 33.5856C14.6628 33.7892 14.8 34.0753 14.8095 34.3804L14.8854 36.8613C14.9094 37.6522 15.7271 38.167 16.4505 37.8474L19.2181 36.6254C19.453 36.5222 19.7157 36.5027 19.9628 36.5713C21.235 36.921 22.5882 37.1073 23.9993 37.1073C31.8544 37.1073 37.9436 31.3535 37.9436 23.5817C37.9436 15.81 31.8549 10.0557 23.9999 10.0557ZM32.6408 19.972L27.786 27.4749C27.5395 27.8558 27.0314 27.9646 26.6504 27.718L22.1531 24.8082C21.9791 24.6956 21.7538 24.6989 21.5831 24.8166L16.5141 28.3126C15.7745 28.8224 14.8703 27.9451 15.3584 27.191L20.2138 19.6881C20.4603 19.3071 20.9684 19.1984 21.3488 19.4449L25.8472 22.3552C26.0212 22.4679 26.2466 22.4646 26.4173 22.3469L31.4851 18.8514C32.2247 18.3411 33.1289 19.219 32.6408 19.9731V19.972Z" fill="white"/>
</svg>
