<svg width="29" height="22" viewBox="0 0 29 22" fill="none" xmlns="http://www.w3.org/2000/svg">
<path d="M28.1952 11.6466H24.6632C24.4389 11.6466 24.2509 11.5706 24.0991 11.4186C23.9474 11.2666 23.8715 11.0783 23.8715 10.8537C23.8715 10.6291 23.9474 10.4412 24.0991 10.29C24.2509 10.1388 24.4389 10.0632 24.6632 10.0632H28.1952C28.4195 10.0632 28.6075 10.1392 28.7593 10.2912C28.911 10.4432 28.9869 10.6315 28.9869 10.8561C28.9869 11.0807 28.911 11.2685 28.7593 11.4197C28.6075 11.571 28.4195 11.6466 28.1952 11.6466ZM21.9897 18.181C22.132 17.9941 22.3076 17.8845 22.5166 17.852C22.7258 17.8196 22.9238 17.8743 23.1103 18.0163L25.918 20.1297C26.1045 20.2716 26.2141 20.4473 26.2465 20.6565C26.279 20.8655 26.2242 21.0634 26.0822 21.2503C25.94 21.4368 25.7644 21.5464 25.5554 21.5788C25.3464 21.6113 25.1485 21.5565 24.9616 21.4145L22.1544 19.3012C21.9676 19.1592 21.8579 18.9837 21.8255 18.7747C21.793 18.5655 21.8478 18.3675 21.9897 18.181ZM25.7961 1.4586L22.9888 3.57156C22.802 3.71353 22.6041 3.76829 22.3951 3.73583C22.1858 3.70337 22.0102 3.59386 21.8682 3.40729C21.726 3.22045 21.6711 3.02254 21.7035 2.81354C21.736 2.60427 21.8456 2.42866 22.0325 2.28668L24.8397 0.173332C25.0266 0.0313593 25.2245 -0.0233986 25.4335 0.00905976C25.6427 0.0415181 25.8184 0.151164 25.9603 0.337997C26.1026 0.524567 26.1574 0.722483 26.125 0.931747C26.0925 1.14075 25.9829 1.31637 25.7961 1.4586ZM4.20177 14.265H2.55748C1.85422 14.265 1.25215 14.0146 0.751292 13.5137C0.250431 13.0128 0 12.4108 0 11.7075V10.0023C0 9.299 0.250431 8.69694 0.751292 8.19608C1.25215 7.69522 1.85422 7.44479 2.55748 7.44479H8.4645L12.8096 4.88098C13.236 4.625 13.6638 4.62171 14.0928 4.87108C14.5222 5.12046 14.7369 5.48396 14.7369 5.9616V15.7482C14.7369 16.2258 14.5222 16.5893 14.0928 16.8387C13.6638 17.0881 13.236 17.0848 12.8096 16.8288L8.4645 14.265H5.7851V19.5023C5.7851 19.7266 5.7091 19.9146 5.5571 20.0663C5.4051 20.2181 5.21682 20.2939 4.99225 20.2939C4.76768 20.2939 4.57979 20.2181 4.42858 20.0663C4.27737 19.9146 4.20177 19.7266 4.20177 19.5023V14.265ZM17.5382 15.4284V6.28144C18.0681 6.7728 18.4949 7.42025 18.8187 8.22379C19.1425 9.0276 19.3044 9.90714 19.3044 10.8624C19.3044 11.8174 19.1425 12.6943 18.8187 13.4931C18.4949 14.2919 18.0681 14.937 17.5382 15.4284Z" fill="#6A6B6B"/>
</svg>
