<svg width="38" height="38" viewBox="0 0 38 38" fill="none" xmlns="http://www.w3.org/2000/svg">
<path d="M32.702 19.7916H29.17C28.9457 19.7916 28.7577 19.7156 28.606 19.5636C28.4542 19.4116 28.3783 19.2233 28.3783 18.9987C28.3783 18.7742 28.4542 18.5863 28.606 18.4351C28.7577 18.2839 28.9457 18.2082 29.17 18.2082H32.702C32.9263 18.2082 33.1144 18.2842 33.2661 18.4362C33.4178 18.5882 33.4937 18.7765 33.4937 19.0011C33.4937 19.2257 33.4178 19.4136 33.2661 19.5648C33.1144 19.716 32.9263 19.7916 32.702 19.7916ZM26.4966 26.326C26.6388 26.1392 26.8144 26.0295 27.0234 25.9971C27.2327 25.9646 27.4306 26.0194 27.6172 26.1613L30.4248 28.2747C30.6114 28.4167 30.7209 28.5923 30.7533 28.8015C30.7858 29.0105 30.7311 29.2085 30.5891 29.3953C30.4468 29.5819 30.2712 29.6914 30.0622 29.7238C29.8532 29.7563 29.6553 29.7015 29.4685 29.5596L26.6612 27.4462C26.4744 27.3042 26.3647 27.1287 26.3323 26.9197C26.2998 26.7105 26.3546 26.5126 26.4966 26.326ZM30.3029 9.60362L27.4956 11.7166C27.3088 11.8586 27.1109 11.9133 26.9019 11.8809C26.6926 11.8484 26.517 11.7389 26.375 11.5523C26.2328 11.3655 26.1779 11.1676 26.2104 10.9586C26.2428 10.7493 26.3525 10.5737 26.5393 10.4317L29.3466 8.31835C29.5334 8.17638 29.7313 8.12162 29.9403 8.15408C30.1496 8.18654 30.3252 8.29618 30.4672 8.48302C30.6094 8.66959 30.6643 8.8675 30.6318 9.07677C30.5994 9.28577 30.4897 9.46138 30.3029 9.60362ZM8.70861 22.41H7.06431C6.36105 22.41 5.75899 22.1596 5.25813 21.6587C4.75727 21.1579 4.50684 20.5558 4.50684 19.8525V18.1473C4.50684 17.444 4.75727 16.842 5.25813 16.3411C5.75899 15.8402 6.36105 15.5898 7.06431 15.5898H12.9713L17.3164 13.026C17.7428 12.77 18.1706 12.7667 18.5997 13.0161C19.029 13.2655 19.2437 13.629 19.2437 14.1066V23.8932C19.2437 24.3708 19.029 24.7344 18.5997 24.9837C18.1706 25.2331 17.7428 25.2298 17.3164 24.9738L12.9713 22.41H10.2919V27.6473C10.2919 27.8716 10.2159 28.0596 10.0639 28.2113C9.91194 28.3631 9.72365 28.439 9.49908 28.439C9.27452 28.439 9.08663 28.3631 8.93542 28.2113C8.78421 28.0596 8.70861 27.8716 8.70861 27.6473V22.41ZM22.045 23.5734V14.4265C22.5749 14.9178 23.0017 15.5653 23.3255 16.3688C23.6493 17.1726 23.8112 18.0522 23.8112 19.0074C23.8112 19.9624 23.6493 20.8393 23.3255 21.6381C23.0017 22.4369 22.5749 23.082 22.045 23.5734Z" fill="#4AE3C9"/>
</svg>
