<svg width="40" height="40" viewBox="0 0 40 40" fill="none" xmlns="http://www.w3.org/2000/svg">
<path opacity="0.4" d="M28.38 0H11.62C4.34 0 0 4.34 0 11.62V28.36C0 35.66 4.34 40 11.62 40H28.36C35.64 40 39.98 35.66 39.98 28.38V11.62C40 4.34 35.66 0 28.38 0Z" fill="#4AE3C9"/>
<path d="M29.6598 14.8209C29.5198 14.4809 29.2398 14.2009 28.8998 14.0609C28.7398 14.0009 28.5598 13.9609 28.3798 13.9609H24.6598C23.8798 13.9609 23.2598 14.5809 23.2598 15.3609C23.2598 16.141 23.8798 16.761 24.6598 16.761H25.0198L20.7998 20.981L18.7598 17.941C18.5198 17.601 18.1598 17.361 17.7398 17.321C17.2998 17.281 16.9198 17.421 16.6198 17.721L10.6599 23.681C10.1199 24.221 10.1199 25.101 10.6599 25.661C10.9399 25.941 11.2799 26.061 11.6399 26.061C11.9999 26.061 12.3599 25.921 12.6199 25.661L17.3798 20.901L19.4198 23.941C19.6598 24.281 20.0198 24.521 20.4398 24.561C20.8798 24.601 21.2598 24.461 21.5598 24.161L26.9998 18.721V19.081C26.9998 19.861 27.6198 20.481 28.3998 20.481C29.1798 20.481 29.7998 19.861 29.7998 19.081V15.3409C29.7598 15.1609 29.7398 14.9809 29.6598 14.8209Z" fill="#4AE3C9"/>
</svg>
