<svg width="24" height="24" viewBox="0 0 24 24" fill="none" xmlns="http://www.w3.org/2000/svg">
<g clip-path="url(#clip0_934_56756)">
<mask id="mask0_934_56756" style="mask-type:luminance" maskUnits="userSpaceOnUse" x="0" y="0" width="24" height="24">
<path d="M24 0H0V24H24V0Z" fill="white"/>
</mask>
<g mask="url(#mask0_934_56756)">
<path opacity="0.4" d="M7.35 3.85938H16.65C20.75 3.85938 22 5.10938 22 9.20938V14.7894C22 18.8894 20.75 20.1394 16.65 20.1394H7.35C3.25 20.1394 2 18.8894 2 14.7894V9.20938C2 5.10938 3.25 3.85938 7.35 3.85938Z" fill="#4AE3C9"/>
<path d="M13.2102 7.58008H15.4402C17.6902 7.58008 18.7402 8.63008 18.7402 10.8801V13.1101C18.7402 15.3601 17.6902 16.4101 15.4402 16.4101H13.2102C10.9602 16.4101 9.91016 15.3601 9.91016 13.1101V10.8801C9.91016 8.63008 10.9602 7.58008 13.2102 7.58008Z" fill="#4AE3C9"/>
</g>
</g>
<defs>
<clipPath id="clip0_934_56756">
<rect width="24" height="24" fill="white"/>
</clipPath>
</defs>
</svg>
