<svg width="20" height="17" viewBox="0 0 20 17" fill="none" xmlns="http://www.w3.org/2000/svg">
<path opacity="0.4" d="M5.35 0H14.65C18.75 0 20 1.25 20 5.35V10.93C20 15.03 18.75 16.28 14.65 16.28H5.35C1.25 16.28 0 15.03 0 10.93V5.35C0 1.25 1.25 0 5.35 0Z" fill="#9F9F9F"/>
<path d="M11.2102 3.7207H13.4402C15.6902 3.7207 16.7402 4.7707 16.7402 7.02072V9.25072C16.7402 11.5007 15.6902 12.5507 13.4402 12.5507H11.2102C8.9602 12.5507 7.91016 11.5007 7.91016 9.25072V7.02072C7.91016 4.7707 8.9602 3.7207 11.2102 3.7207Z" fill="#9F9F9F"/>
</svg>
