<svg width="24" height="24" viewBox="0 0 24 24" fill="none" xmlns="http://www.w3.org/2000/svg">
<mask id="mask0_1575_1815" style="mask-type:luminance" maskUnits="userSpaceOnUse" x="0" y="0" width="24" height="24">
<path d="M24 0H0V24H24V0Z" fill="white"/>
</mask>
<g mask="url(#mask0_1575_1815)">
<path opacity="0.4" d="M7.65055 20.9098C7.62055 20.9098 7.58055 20.9298 7.55055 20.9298C5.61055 19.9698 4.03055 18.3798 3.06055 16.4398C3.06055 16.4098 3.08055 16.3698 3.08055 16.3398C4.30055 16.6998 5.56055 16.9698 6.81055 17.1798C7.03055 18.4398 7.29055 19.6898 7.65055 20.9098Z" fill="#9F9F9F"/>
<path opacity="0.4" d="M20.94 16.4498C19.95 18.4398 18.3 20.0498 16.29 21.0198C16.67 19.7498 16.99 18.4698 17.2 17.1798C18.46 16.9698 19.7 16.6998 20.92 16.3398C20.91 16.3798 20.94 16.4198 20.94 16.4498Z" fill="#9F9F9F"/>
<path opacity="0.4" d="M21.02 7.71047C19.76 7.33047 18.49 7.02047 17.2 6.80047C16.99 5.51047 16.68 4.23047 16.29 2.98047C18.36 3.97047 20.03 5.64047 21.02 7.71047Z" fill="#9F9F9F"/>
<path opacity="0.4" d="M7.64949 3.09055C7.28949 4.31055 7.02949 5.55055 6.81949 6.81055C5.52949 7.01055 4.24949 7.33055 2.97949 7.71055C3.94949 5.70055 5.55949 4.05055 7.54949 3.06055C7.57949 3.06055 7.61949 3.09055 7.64949 3.09055Z" fill="#9F9F9F"/>
<path d="M15.4898 6.59C13.1698 6.33 10.8298 6.33 8.50977 6.59C8.75977 5.22 9.07977 3.85 9.52977 2.53C9.54977 2.45 9.53977 2.39 9.54977 2.31C10.3398 2.12 11.1498 2 11.9998 2C12.8398 2 13.6598 2.12 14.4398 2.31C14.4498 2.39 14.4498 2.45 14.4698 2.53C14.9198 3.86 15.2398 5.22 15.4898 6.59Z" fill="#9F9F9F"/>
<path d="M6.59 15.4898C5.21 15.2398 3.85 14.9198 2.53 14.4698C2.45 14.4498 2.39 14.4598 2.31 14.4498C2.12 13.6598 2 12.8498 2 11.9998C2 11.1598 2.12 10.3398 2.31 9.55976C2.39 9.54976 2.45 9.54977 2.53 9.52977C3.86 9.08977 5.21 8.75977 6.59 8.50977C6.34 10.8298 6.34 13.1698 6.59 15.4898Z" fill="#9F9F9F"/>
<path d="M22.0002 11.9998C22.0002 12.8498 21.8802 13.6598 21.6902 14.4498C21.6102 14.4598 21.5502 14.4498 21.4702 14.4698C20.1402 14.9098 18.7802 15.2398 17.4102 15.4898C17.6702 13.1698 17.6702 10.8298 17.4102 8.50977C18.7802 8.75977 20.1502 9.07977 21.4702 9.52977C21.5502 9.54977 21.6102 9.55976 21.6902 9.55976C21.8802 10.3498 22.0002 11.1598 22.0002 11.9998Z" fill="#9F9F9F"/>
<path d="M15.4898 17.4102C15.2398 18.7902 14.9198 20.1502 14.4698 21.4702C14.4498 21.5502 14.4498 21.6102 14.4398 21.6902C13.6598 21.8802 12.8398 22.0002 11.9998 22.0002C11.1498 22.0002 10.3398 21.8802 9.54977 21.6902C9.53977 21.6102 9.54977 21.5502 9.52977 21.4702C9.08977 20.1402 8.75977 18.7902 8.50977 17.4102C9.66977 17.5402 10.8298 17.6302 11.9998 17.6302C13.1698 17.6302 14.3398 17.5402 15.4898 17.4102Z" fill="#9F9F9F"/>
<path d="M15.7633 15.7633C13.2622 16.0789 10.7378 16.0789 8.23667 15.7633C7.92111 13.2622 7.92111 10.7378 8.23667 8.23667C10.7378 7.92111 13.2622 7.92111 15.7633 8.23667C16.0789 10.7378 16.0789 13.2622 15.7633 15.7633Z" fill="#9F9F9F"/>
</g>
</svg>
