<svg width="48" height="48" viewBox="0 0 48 48" fill="none" xmlns="http://www.w3.org/2000/svg">
<rect width="48" height="48" rx="4" fill="#29A9EB"/>
<path fill-rule="evenodd" clip-rule="evenodd" d="M13.0532 23.7889C18.8836 21.2487 22.7715 19.574 24.7168 18.7649C30.271 16.4547 31.4251 16.0534 32.1773 16.0402C32.3428 16.0373 32.7127 16.0783 32.9523 16.2727C33.1547 16.4369 33.2103 16.6587 33.237 16.8143C33.2636 16.97 33.2968 17.3246 33.2704 17.6017C32.9694 20.7641 31.6671 28.4386 31.0045 31.9806C30.7241 33.4794 30.1721 33.9819 29.6377 34.0311C28.4762 34.138 27.5943 33.2635 26.4694 32.5261C24.7091 31.3723 23.7147 30.654 22.0061 29.528C20.0314 28.2268 21.3115 27.5116 22.4368 26.3428C22.7313 26.0369 27.8487 21.3823 27.9477 20.96C27.9601 20.9072 27.9716 20.7104 27.8547 20.6064C27.7377 20.5025 27.5651 20.5381 27.4406 20.5663C27.264 20.6064 24.452 22.465 19.0044 26.1423C18.2063 26.6904 17.4833 26.9574 16.8355 26.9434C16.1214 26.928 14.7478 26.5397 13.7266 26.2077C12.4741 25.8006 11.4786 25.5853 11.5653 24.8939C11.6105 24.5337 12.1064 24.1654 13.0532 23.7889Z" fill="white"/>
</svg>
