<svg width="24" height="24" viewBox="0 0 24 24" fill="none" xmlns="http://www.w3.org/2000/svg">
<g clip-path="url(#clip0_934_57721)">
<mask id="mask0_934_57721" style="mask-type:luminance" maskUnits="userSpaceOnUse" x="0" y="0" width="24" height="24">
<path d="M24 0H0V24H24V0Z" fill="white"/>
</mask>
<g mask="url(#mask0_934_57721)">
<path opacity="0.4" d="M22 9.21035V14.7904C22 18.8904 20.75 20.1404 16.65 20.1404H9.90996V17.1204C9.90996 16.7404 9.58996 16.4204 9.20996 16.4204V7.58035C9.58996 7.58035 9.90996 7.26035 9.90996 6.88035V3.86035H16.65C20.75 3.86035 22 5.11035 22 9.21035Z" fill="#4AE3C9"/>
<path d="M18.4712 11.9001C18.6412 11.7401 18.7012 11.4901 18.6312 11.2701C18.5612 11.0401 18.3712 10.8801 18.1312 10.8501L16.8512 10.6601C16.8012 10.6501 16.7612 10.6201 16.7412 10.5801L16.1712 9.42008C16.0712 9.21008 15.8512 9.08008 15.6212 9.08008C15.3812 9.08008 15.1712 9.21008 15.0612 9.42008L14.4912 10.5801C14.4712 10.6301 14.4212 10.6601 14.3712 10.6601L13.0912 10.8501C12.8612 10.8801 12.6612 11.0501 12.5912 11.2701C12.5212 11.5001 12.5812 11.7401 12.7512 11.9001L13.6812 12.8001C13.7212 12.8301 13.7312 12.8901 13.7212 12.9401L13.5012 14.2101C13.4612 14.4401 13.5512 14.6801 13.7512 14.8101C13.8612 14.8901 13.9812 14.9301 14.1112 14.9301C14.2112 14.9301 14.3112 14.9101 14.4012 14.8601L15.5512 14.2601C15.5912 14.2401 15.6512 14.2401 15.6912 14.2601L16.8412 14.8601C17.0512 14.9701 17.3012 14.9501 17.4912 14.8101C17.6812 14.6701 17.7812 14.4401 17.7412 14.2001L17.5212 12.9301C17.5112 12.8801 17.5312 12.8301 17.5612 12.7901L18.4712 11.9001Z" fill="#4AE3C9"/>
<path d="M9.21061 7.58035V16.4204C8.83061 16.4204 8.51061 16.7404 8.51061 17.1204V20.1404H7.35061C3.40061 20.1404 2.10061 18.9604 2.01061 15.2804C2.00061 15.0904 2.08061 14.9104 2.21061 14.7804C2.34061 14.6404 2.53061 14.5704 2.71061 14.5704C4.11061 14.5704 5.26061 13.4204 5.26061 12.0104C5.26061 10.6004 4.11061 9.44035 2.71061 9.44035C2.51061 9.44035 2.34061 9.37035 2.21061 9.23035C2.08061 9.10035 2.00061 8.91035 2.01061 8.73035C2.10061 5.04035 3.40061 3.86035 7.35061 3.86035H8.51061V6.88035C8.51061 7.27035 8.83061 7.58035 9.21061 7.58035Z" fill="#4AE3C9"/>
</g>
</g>
<defs>
<clipPath id="clip0_934_57721">
<rect width="24" height="24" fill="white"/>
</clipPath>
</defs>
</svg>
