<svg width="24" height="24" viewBox="0 0 24 24" fill="none" xmlns="http://www.w3.org/2000/svg">
<g clip-path="url(#clip0_934_57744)">
<mask id="mask0_934_57744" style="mask-type:luminance" maskUnits="userSpaceOnUse" x="0" y="0" width="24" height="24">
<path d="M24 0H0V24H24V0Z" fill="white"/>
</mask>
<g mask="url(#mask0_934_57744)">
<path opacity="0.4" d="M11.9697 22C17.4926 22 21.9697 17.5228 21.9697 12C21.9697 6.47715 17.4926 2 11.9697 2C6.44689 2 1.96973 6.47715 1.96973 12C1.96973 17.5228 6.44689 22 11.9697 22Z" fill="#9F9F9F"/>
<path d="M14.9694 10.2301L12.0694 8.56012C11.3494 8.14012 10.4794 8.14012 9.75937 8.56012C9.03937 8.98012 8.60938 9.72012 8.60938 10.5601V13.9101C8.60938 14.7401 9.03937 15.4901 9.75937 15.9101C10.1194 16.1201 10.5194 16.2201 10.9094 16.2201C11.3094 16.2201 11.6994 16.1201 12.0594 15.9101L14.9594 14.2401C15.6794 13.8201 16.1094 13.0801 16.1094 12.2401C16.1294 11.4001 15.6994 10.6501 14.9694 10.2301Z" fill="#9F9F9F"/>
</g>
</g>
<defs>
<clipPath id="clip0_934_57744">
<rect width="24" height="24" fill="white"/>
</clipPath>
</defs>
</svg>
