<svg width="48" height="48" viewBox="0 0 48 48" fill="none" xmlns="http://www.w3.org/2000/svg">
<rect width="48" height="48" rx="4" fill="#25D366"/>
<path d="M12 36L13.687 29.837C12.646 28.033 12.099 25.988 12.1 23.891C12.103 17.335 17.438 12 23.993 12C27.174 12.001 30.16 13.24 32.406 15.488C34.6509 17.736 35.8869 20.724 35.8859 23.902C35.8829 30.459 30.548 35.794 23.993 35.794C22.003 35.793 20.042 35.294 18.305 34.346L12 36ZM18.597 32.193C20.273 33.188 21.873 33.784 23.989 33.785C29.437 33.785 33.875 29.351 33.878 23.9C33.88 18.438 29.463 14.01 23.997 14.008C18.545 14.008 14.11 18.442 14.108 23.892C14.107 26.117 14.759 27.783 15.854 29.526L14.855 33.174L18.597 32.193ZM29.984 26.729C29.91 26.605 29.712 26.531 29.414 26.382C29.117 26.233 27.656 25.514 27.383 25.415C27.111 25.316 26.913 25.266 26.714 25.564C26.516 25.861 25.946 26.531 25.773 26.729C25.6 26.927 25.426 26.952 25.129 26.803C24.832 26.654 23.874 26.341 22.739 25.328C21.856 24.54 21.259 23.567 21.086 23.269C20.913 22.972 21.068 22.811 21.216 22.663C21.35 22.53 21.513 22.316 21.662 22.142C21.813 21.97 21.862 21.846 21.962 21.647C22.061 21.449 22.012 21.275 21.937 21.126C21.862 20.978 21.268 19.515 21.021 18.92C20.779 18.341 20.534 18.419 20.352 18.41L19.782 18.4C19.584 18.4 19.262 18.474 18.99 18.772C18.718 19.07 17.95 19.788 17.95 21.251C17.95 22.714 19.015 24.127 19.163 24.325C19.312 24.523 21.258 27.525 24.239 28.812C24.948 29.118 25.502 29.301 25.933 29.438C26.645 29.664 27.293 29.632 27.805 29.556C28.376 29.471 29.563 28.837 29.811 28.143C30.059 27.448 30.059 26.853 29.984 26.729Z" fill="white"/>
</svg>
