<svg width="20" height="20" viewBox="0 0 20 20" fill="none" xmlns="http://www.w3.org/2000/svg">
<path d="M20 16V17C20 18.65 20 20 17 20H3C0 20 0 18.65 0 17V16C0 15.45 0.45 15 1 15H19C19.55 15 20 15.45 20 16Z" fill="#9F9F9F"/>
<path opacity="0.4" d="M18.7498 11V15H1.2998V11C1.2998 7.16 4.0098 3.95 7.6198 3.18C8.15978 3.06 8.71979 3 9.29979 3H10.7498C11.3298 3 11.8998 3.06 12.4398 3.18C16.0498 3.96 18.7498 7.16 18.7498 11Z" fill="#9F9F9F"/>
<path d="M12.5303 2.5C12.5303 2.74 12.5003 2.96 12.4403 3.18C11.9003 3.06 11.3303 3 10.7503 3H9.30027C8.72027 3 8.16027 3.06 7.62027 3.18C7.56027 2.96 7.53027 2.74 7.53027 2.5C7.53027 1.12 8.65027 0 10.0303 0C11.4103 0 12.5303 1.12 12.5303 2.5Z" fill="#9F9F9F"/>
<path d="M13.0303 9.75H7.03027C6.62027 9.75 6.28027 9.41 6.28027 9C6.28027 8.59 6.62027 8.25 7.03027 8.25H13.0303C13.4403 8.25 13.7803 8.59 13.7803 9C13.7803 9.41 13.4403 9.75 13.0303 9.75Z" fill="#9F9F9F"/>
</svg>
