<svg width="32" height="29" viewBox="0 0 32 29" fill="none" xmlns="http://www.w3.org/2000/svg">
<path opacity="0.4" d="M25.6 0H6.4C2.864 0 0 2.848 0 6.352V22.448C0 25.952 2.864 28.8 6.4 28.8H25.6C29.136 28.8 32 25.952 32 22.448V6.352C32 2.848 29.136 0 25.6 0Z" fill="#4AE3C9"/>
<path d="M27.2 9.1998H19.2C18.544 9.1998 18 8.6558 18 7.9998C18 7.3438 18.544 6.7998 19.2 6.7998H27.2C27.856 6.7998 28.4 7.3438 28.4 7.9998C28.4 8.6558 27.856 9.1998 27.2 9.1998Z" fill="#4AE3C9"/>
<path d="M27.2 15.6002H20.8C20.144 15.6002 19.6 15.0562 19.6 14.4002C19.6 13.7442 20.144 13.2002 20.8 13.2002H27.2C27.856 13.2002 28.4 13.7442 28.4 14.4002C28.4 15.0562 27.856 15.6002 27.2 15.6002Z" fill="#4AE3C9"/>
<path d="M27.2 21.9996H24C23.344 21.9996 22.8 21.4556 22.8 20.7996C22.8 20.1436 23.344 19.5996 24 19.5996H27.2C27.856 19.5996 28.4 20.1436 28.4 20.7996C28.4 21.4556 27.856 21.9996 27.2 21.9996Z" fill="#4AE3C9"/>
<path d="M10.3991 14.0638C12.4404 14.0638 14.0951 12.4091 14.0951 10.3679C14.0951 8.32663 12.4404 6.67188 10.3991 6.67188C8.35788 6.67188 6.70312 8.32663 6.70312 10.3679C6.70312 12.4091 8.35788 14.0638 10.3991 14.0638Z" fill="#4AE3C9"/>
<path d="M11.6808 16.1752C10.8328 16.0952 9.95283 16.0952 9.10483 16.1752C6.41683 16.4312 4.25683 18.5592 4.00083 21.2472C3.98483 21.4712 4.04883 21.6952 4.20883 21.8552C4.36883 22.0152 4.57683 22.1272 4.80083 22.1272H16.0008C16.2248 22.1272 16.4488 22.0312 16.5928 21.8712C16.7368 21.7112 16.8168 21.4872 16.8008 21.2632C16.5288 18.5592 14.3848 16.4312 11.6808 16.1752Z" fill="#4AE3C9"/>
</svg>
