<svg width="32" height="32" viewBox="0 0 32 32" fill="none" xmlns="http://www.w3.org/2000/svg">
<mask id="mask0_1621_225" style="mask-type:luminance" maskUnits="userSpaceOnUse" x="0" y="0" width="32" height="32">
<path d="M32 0H0V32H32V0Z" fill="white"/>
</mask>
<g mask="url(#mask0_1621_225)">
<path opacity="0.4" d="M24 25.1463H22.9867C21.92 25.1463 20.9067 25.5597 20.16 26.3064L17.88 28.5597C16.84 29.5864 15.1467 29.5864 14.1067 28.5597L11.8267 26.3064C11.08 25.5597 10.0533 25.1463 9 25.1463H8C5.78667 25.1463 4 23.3731 4 21.1864V6.63969C4 4.45302 5.78667 2.67969 8 2.67969H24C26.2133 2.67969 28 4.45302 28 6.63969V21.1864C28 23.3597 26.2133 25.1463 24 25.1463Z" fill="#4AE3C9"/>
<path d="M16.3733 19.9468C16.1733 20.0135 15.84 20.0135 15.6267 19.9468C13.8933 19.3468 10 16.8802 10 12.6802C10 10.8268 11.4933 9.3335 13.3333 9.3335C14.4267 9.3335 15.3867 9.8535 16 10.6668C16.6133 9.8535 17.5733 9.3335 18.6667 9.3335C20.5067 9.3335 22 10.8268 22 12.6802C21.9867 16.8802 18.1067 19.3468 16.3733 19.9468Z" fill="#4AE3C9"/>
</g>
</svg>
