<svg width="32" height="32" viewBox="0 0 32 32" fill="none" xmlns="http://www.w3.org/2000/svg">
<g clip-path="url(#clip0_1621_197)">
<mask id="mask0_1621_197" style="mask-type:luminance" maskUnits="userSpaceOnUse" x="0" y="0" width="32" height="32">
<path d="M32 0H0V32H32V0Z" fill="white"/>
</mask>
<g mask="url(#mask0_1621_197)">
<path opacity="0.4" d="M11.56 18.666H5.33332C3.86666 18.666 2.66666 19.866 2.66666 21.3327V29.3327H11.56V18.666Z" fill="#4AE3C9"/>
<path d="M17.7736 13.333H14.2136C12.7469 13.333 11.5469 14.533 11.5469 15.9997V29.333H20.4403V15.9997C20.4403 14.533 19.2536 13.333 17.7736 13.333Z" fill="#4AE3C9"/>
<path opacity="0.4" d="M26.6668 22.666H20.4401V29.3327H29.3335V25.3327C29.3335 23.866 28.1335 22.666 26.6668 22.666Z" fill="#4AE3C9"/>
<path d="M20.0136 6.46698C20.4269 6.05365 20.5869 5.56031 20.4536 5.13365C20.3203 4.70698 19.9069 4.40033 19.3203 4.30699L18.0403 4.09365C17.9869 4.08031 17.8669 4.0003 17.8403 3.94697L17.1336 2.53363C16.6003 1.45363 15.3869 1.45363 14.8536 2.53363L14.1469 3.94697C14.1203 4.0003 14.0003 4.08031 13.9469 4.09365L12.6669 4.30699C12.0802 4.40033 11.6802 4.70698 11.5335 5.13365C11.4002 5.56031 11.5602 6.05365 11.9735 6.46698L12.9602 7.46698C13.0002 7.50698 13.0535 7.66698 13.0402 7.72031L12.7602 8.94697C12.5469 9.85363 12.8935 10.267 13.1202 10.4403C13.3469 10.6003 13.8403 10.8136 14.6536 10.3336L15.8536 9.62698C15.9069 9.58698 16.0803 9.58698 16.1336 9.62698L17.3336 10.3336C17.7069 10.5603 18.0136 10.627 18.2536 10.627C18.5336 10.627 18.7336 10.5203 18.8536 10.4403C19.0803 10.2803 19.4269 9.86697 19.2136 8.94697L18.9336 7.72031C18.9203 7.65365 18.9603 7.50698 19.0136 7.46698L20.0136 6.46698Z" fill="#4AE3C9"/>
</g>
</g>
<defs>
<clipPath id="clip0_1621_197">
<rect width="32" height="32" fill="white"/>
</clipPath>
</defs>
</svg>
